<svg version="1.1" viewBox="0.0 0.0 334.59055118110234 171.0288713910761" fill="none" stroke="none" stroke-linecap="square" stroke-miterlimit="10" xmlns:xlink="http://www.w3.org/1999/xlink" xmlns="http://www.w3.org/2000/svg"><clipPath id="p.0"><path d="m0 0l334.59055 0l0 171.02887l-334.59055 0l0 -171.02887z" clip-rule="nonzero"/></clipPath><g clip-path="url(#p.0)"><path fill="#000000" fill-opacity="0.0" d="m0 0l334.59055 0l0 171.02887l-334.59055 0z" fill-rule="evenodd"/><path fill="#000000" fill-opacity="0.0" d="m-5.5406823 0l376.28345 0l0 180.97638l-376.28345 0z" fill-rule="evenodd"/><path fill="#77e4c8" d="m44.13119 138.32812q-11.46875 0 -19.812498 -4.0625q-8.328126 -4.0625 -12.796876 -11.796875q-4.4687495 -7.734375 -4.4687495 -18.796875q0 -11.0625 4.5312495 -18.796875q4.546876 -7.734375 12.671876 -11.796875q8.140623 -4.078125 18.796873 -4.078125q10.9375 0 18.59375 4.078125q7.671879 4.0625 11.734379 11.265625q4.078125 7.1875 4.078125 16.796875q0 2.265625 -0.203125 4.53125q-0.203125 2.265625 -0.46875 3.859375l-52.390625 0l0 -11.734375l40.65625 0l-12.796879 4.9375q0 -7.59375 -2.0625 -11.53125q-2.0625 -3.9375 -7.140625 -3.9375q-3.46875 0 -5.796875 1.609375q-2.328125 1.59375 -3.46875 5.328125q-1.125 3.734375 -1.125 9.859375q0 6.140625 1.390625 9.671875q1.40625 3.53125 3.9375 4.875q2.53125 1.328125 6.40625 1.328125q4.265625 0 6.65625 -1.734375q2.40625 -1.734375 3.46875 -4.796875l21.593754 6.390625q-1.59375 6.140625 -6.46875 10.28125q-4.859375 4.125 -11.531254 6.1875q-6.65625 2.0625 -13.984375 2.0625z" fill-rule="nonzero"/><path fill="#4535c1" d="m109.25842 137.9375q-8.03125 0 -13.875 -2.84375q-5.828125 -2.859375 -8.953125 -8.265625q-3.125 -5.40625 -3.125 -13.15625q0 -7.75 3.171875 -13.15625q3.171875 -5.421875 8.859375 -8.265625q5.703125 -2.84375 13.171875 -2.84375q7.65625 0 13.015625 2.84375q5.375 2.84375 8.21875 7.890625q2.84375 5.03125 2.84375 11.75q0 1.59375 -0.140625 3.1875q-0.140625 1.578125 -0.328125 2.703125l-36.671875 0l0 -8.21875l28.46875 0l-8.96875 3.453125q0 -5.328125 -1.453125 -8.078125q-1.4375 -2.75 -4.984375 -2.75q-2.421875 0 -4.0625 1.125q-1.625 1.109375 -2.421875 3.734375q-0.796875 2.609375 -0.796875 6.90625q0 4.28125 0.984375 6.765625q0.984375 2.46875 2.75 3.40625q1.765625 0.921875 4.484375 0.921875q2.984375 0 4.65625 -1.203125q1.6875 -1.21875 2.4375 -3.359375l15.109375 4.46875q-1.109375 4.296875 -4.515625 7.203125q-3.40625 2.890625 -8.078125 4.34375q-4.671875 1.4375 -9.796875 1.4375zm30.239746 -0.9375l0 -46.671875l16.984375 0l0.84375 18.015625l-1.96875 -2.046875q0.75 -5.421875 3.078125 -9.1875q2.34375 -3.78125 6.015625 -5.734375q3.6875 -1.96875 8.546875 -1.96875q4.765625 0 8.171875 1.828125q3.40625 1.8125 5.265625 5.40625q1.875 3.59375 1.875 8.8125l0 31.546875l-18.859375 0l0 -26.6875q0 -3.921875 -1.265625 -5.359375q-1.25 -1.453125 -3.59375 -1.453125q-1.765625 0 -3.21875 0.890625q-1.4375 0.875 -2.234375 2.84375q-0.796875 1.953125 -0.796875 5.125l0 24.640625l-18.84375 0zm74.660385 0.9375q-5.703125 0 -9.859375 -2.84375q-4.140625 -2.859375 -6.34375 -8.265625q-2.1875 -5.40625 -2.1875 -12.96875q0 -7.75 2.234375 -13.203125q2.25 -5.46875 6.484375 -8.359375q4.25 -2.890625 9.953125 -2.890625q6.625 0 10.359375 4.15625q3.734375 4.140625 4.75 10.59375l-1.671875 2.328125l0 -35.375l18.84375 0l0 65.890625l-16.984375 0l-1.109375 -17.453125l2.140625 2.140625q-0.5625 4.765625 -2.765625 8.453125q-2.1875 3.6875 -5.6875 5.75q-3.5 2.046875 -8.15625 2.046875zm7.28125 -13.4375q2.046875 0 3.4375 -1.21875q1.40625 -1.21875 2.203125 -3.640625q0.796875 -2.421875 0.796875 -6.0625q0 -3.453125 -0.703125 -5.828125q-0.703125 -2.390625 -2.15625 -3.59375q-1.4375 -1.21875 -3.578125 -1.21875q-3.078125 0 -4.90625 2.375q-1.8125 2.375 -1.8125 8.359375q0 5.96875 1.765625 8.40625q1.78125 2.421875 4.953125 2.421875zm57.7668 -35.09375q7.65625 0 13.34375 2.84375q5.6875 2.84375 8.859375 8.265625q3.1875 5.40625 3.1875 13.15625q0 7.65625 -3.1875 13.109375q-3.171875 5.453125 -8.859375 8.3125q-5.6875 2.84375 -13.34375 2.84375q-7.46875 0 -13.21875 -2.84375q-5.734375 -2.859375 -8.953125 -8.3125q-3.21875 -5.453125 -3.21875 -13.109375q0 -7.75 3.21875 -13.15625q3.21875 -5.421875 8.953125 -8.265625q5.75 -2.84375 13.21875 -2.84375zm0 12.96875q-2.046875 0 -3.5 1.03125q-1.453125 1.015625 -2.203125 3.546875q-0.734375 2.515625 -0.734375 6.71875q0 4.203125 0.734375 6.671875q0.75 2.46875 2.203125 3.546875q1.453125 1.0625 3.5 1.0625q2.140625 0 3.53125 -1.0625q1.40625 -1.078125 2.15625 -3.546875q0.75 -2.46875 0.75 -6.671875q0 -4.203125 -0.75 -6.71875q-0.75 -2.53125 -2.15625 -3.546875q-1.390625 -1.03125 -3.53125 -1.03125z" fill-rule="nonzero"/></g></svg>