<svg version="1.1" viewBox="0.0 0.0 297.62992125984255 109.45669291338582" fill="none" stroke="none" stroke-linecap="square" stroke-miterlimit="10" xmlns:xlink="http://www.w3.org/1999/xlink" xmlns="http://www.w3.org/2000/svg"><clipPath id="p.0"><path d="m0 0l297.6299 0l0 109.456696l-297.6299 0l0 -109.456696z" clip-rule="nonzero"/></clipPath><g clip-path="url(#p.0)"><path fill="#000000" fill-opacity="0.0" d="m0 0l297.6299 0l0 109.456696l-297.6299 0z" fill-rule="evenodd"/><path fill="#000000" fill-opacity="0.0" d="m-0.003937008 -17.666666l297.6378 0l0 133.16536l-297.6378 0z" fill-rule="evenodd"/><path fill="#f8694d" d="m52.204636 82.61721q-10.09375 0 -17.421875 -3.578125q-7.328125 -3.578125 -11.265625 -10.375q-3.921875 -6.812504 -3.921875 -16.546879q0 -9.734375 3.984375 -16.546875q3.984375 -6.812498 11.140625 -10.390623q7.15625 -3.578125 16.546875 -3.578125q9.625 0 16.359375 3.578125q6.75 3.578125 10.328125 9.921873q3.578125 6.328125 3.578125 14.78125q0 2.0 -0.171875 4.0q-0.171875 1.984375 -0.40625 3.390625l-46.109375 0l0 -10.328125l35.78125 0l-11.265625 4.34375q0 -6.6875 -1.8125 -10.140625q-1.8125 -3.46875 -6.28125 -3.46875q-3.046875 0 -5.109375 1.40625q-2.046875 1.40625 -3.046875 4.703125q-1.0 3.28125 -1.0 8.671875q0 5.40625 1.234375 8.515625q1.234375 3.1093788 3.46875 4.281254q2.234375 1.171875 5.625 1.171875q3.765625 0 5.875 -1.515625q2.109375 -1.5312538 3.046875 -4.234379l19.0 5.625004q-1.40625 5.40625 -5.6875 9.046875q-4.28125 3.625 -10.15625 5.453125q-5.859375 1.8125 -12.3125 1.8125z" fill-rule="nonzero"/><path fill="#ff9c28" d="m88.4581 81.445335l0 -40.67188l14.796875 0l0.734375 15.703125l-1.703125 -1.78125q0.65625 -4.71875 2.6875 -8.015625q2.03125 -3.296875 5.234375 -5.0q3.21875 -1.71875 7.453125 -1.71875q4.140625 0 7.109375 1.59375q2.96875 1.578125 4.59375 4.71875q1.625 3.125 1.625 7.6875l0 27.484379l-16.421875 0l0 -23.265629q0 -3.40625 -1.109375 -4.671875q-1.09375 -1.265625 -3.125 -1.265625q-1.546875 0 -2.8125 0.78125q-1.25 0.765625 -1.953125 2.484375q-0.6875 1.703125 -0.6875 4.46875l0 21.468754l-16.421875 0zm63.845337 0.8125q-4.15625 0 -7.203125 -1.421875q-3.046875 -1.421875 -4.71875 -4.546875q-1.65625 -3.140625 -1.65625 -8.1875l0 -27.328129l16.421875 0l0 23.515629q0 3.09375 1.140625 4.390625q1.140625 1.296875 3.328125 1.296875q1.140625 0 2.109375 -0.4375q0.984375 -0.453125 1.671875 -1.34375q0.703125 -0.90625 1.0625 -2.359375q0.359375 -1.46875 0.359375 -3.4218788l0 -21.640625l16.4375 0l0 40.67188l-14.71875 0l-0.40625 -8.140625q-1.875 4.484375 -5.375 6.71875q-3.5 2.234375 -8.453125 2.234375zm56.685883 -54.890625l0 38.46875q0 2.84375 1.25 4.0625q1.265625 1.21875 3.796875 1.21875q1.78125 0 3.078125 -0.328125q1.3125 -0.328125 2.453125 -1.0625l1.046875 9.609375q-1.953125 1.375 -5.296875 2.140625q-3.328125 0.78125 -6.5 0.78125q-5.203125 0 -8.828125 -1.375q-3.609375 -1.390625 -5.53125 -4.390625q-1.90625 -3.015625 -1.90625 -8.0625l0 -36.515625l16.4375 -4.546875zm11.0625 13.406248l0 11.3125l-34.15625 0l0 -11.3125l34.15625 0zm5.200241 40.67188l0 -40.67188l14.71875 0l0.484375 9.515625q1.390625 -4.796875 4.359375 -7.5625q2.96875 -2.765625 7.765625 -2.765625q1.703125 0 2.765625 0.296875q1.0624847 0.28125 1.5468597 0.6875l-1.4687347 13.34375q-0.8125 -0.328125 -2.125 -0.578125q-1.296875 -0.25 -3.0 -0.25q-2.4375 0 -4.390625 0.90625q-1.953125 0.890625 -3.09375 2.640625q-1.140625 1.75 -1.140625 4.4375l0 20.000004l-16.421875 0zm43.75914 -44.250004q-4.890625 0 -7.046875 -1.703125q-2.140625 -1.703125 -2.140625 -5.531248q0 -3.90625 2.140625 -5.609375q2.15625 -1.703125 7.046875 -1.703125q4.875 0 7.03125 1.703125q2.15625 1.703125 2.15625 5.609375q0 3.828123 -2.15625 5.531248q-2.15625 1.703125 -7.03125 1.703125zm8.203125 3.578125l0 40.67188l-16.421875 0l0 -40.67188l16.421875 0z" fill-rule="nonzero"/></g></svg>